<svg id="visual" viewBox="0 0 960 540" width="960" height="540" xmlns="http://www.w3.org/2000/svg" xmlns:xlink="http://www.w3.org/1999/xlink" version="1.1"><rect x="0" y="0" width="960" height="540" fill="#0b0a0e"></rect><path d="M0 379L22.8 382.2C45.7 385.3 91.3 391.7 137 391.3C182.7 391 228.3 384 274 375.3C319.7 366.7 365.3 356.3 411.2 350C457 343.7 503 341.3 548.8 338.8C594.7 336.3 640.3 333.7 686 336.5C731.7 339.3 777.3 347.7 823 354C868.7 360.3 914.3 364.7 937.2 366.8L960 369L960 541L937.2 541C914.3 541 868.7 541 823 541C777.3 541 731.7 541 686 541C640.3 541 594.7 541 548.8 541C503 541 457 541 411.2 541C365.3 541 319.7 541 274 541C228.3 541 182.7 541 137 541C91.3 541 45.7 541 22.8 541L0 541Z" fill="#0b0a0e"></path><path d="M0 374L22.8 375.2C45.7 376.3 91.3 378.7 137 388.7C182.7 398.7 228.3 416.3 274 417C319.7 417.7 365.3 401.3 411.2 399.3C457 397.3 503 409.7 548.8 418.5C594.7 427.3 640.3 432.7 686 429.5C731.7 426.3 777.3 414.7 823 402.3C868.7 390 914.3 377 937.2 370.5L960 364L960 541L937.2 541C914.3 541 868.7 541 823 541C777.3 541 731.7 541 686 541C640.3 541 594.7 541 548.8 541C503 541 457 541 411.2 541C365.3 541 319.7 541 274 541C228.3 541 182.7 541 137 541C91.3 541 45.7 541 22.8 541L0 541Z" fill="#121018"></path><path d="M0 476L22.8 469C45.7 462 91.3 448 137 445.3C182.7 442.7 228.3 451.3 274 448.8C319.7 446.3 365.3 432.7 411.2 428.7C457 424.7 503 430.3 548.8 434.7C594.7 439 640.3 442 686 439.7C731.7 437.3 777.3 429.7 823 424C868.7 418.3 914.3 414.7 937.2 412.8L960 411L960 541L937.2 541C914.3 541 868.7 541 823 541C777.3 541 731.7 541 686 541C640.3 541 594.7 541 548.8 541C503 541 457 541 411.2 541C365.3 541 319.7 541 274 541C228.3 541 182.7 541 137 541C91.3 541 45.7 541 22.8 541L0 541Z" fill="#171520"></path><path d="M0 492L22.8 495C45.7 498 91.3 504 137 498.5C182.7 493 228.3 476 274 470C319.7 464 365.3 469 411.2 470.8C457 472.7 503 471.3 548.8 470.3C594.7 469.3 640.3 468.7 686 470.7C731.7 472.7 777.3 477.3 823 481.8C868.7 486.3 914.3 490.7 937.2 492.8L960 495L960 541L937.2 541C914.3 541 868.7 541 823 541C777.3 541 731.7 541 686 541C640.3 541 594.7 541 548.8 541C503 541 457 541 411.2 541C365.3 541 319.7 541 274 541C228.3 541 182.7 541 137 541C91.3 541 45.7 541 22.8 541L0 541Z" fill="#1d1929"></path></svg>