<svg id="visual" viewBox="0 0 960 540" width="960" height="540" xmlns="http://www.w3.org/2000/svg" xmlns:xlink="http://www.w3.org/1999/xlink" version="1.1"><rect x="0" y="0" width="960" height="540" fill="#1d1929"></rect><path d="M0 352L22.8 342.8C45.7 333.7 91.3 315.3 137 304.5C182.7 293.7 228.3 290.3 274 291.5C319.7 292.7 365.3 298.3 411.2 310.7C457 323 503 342 548.8 338.2C594.7 334.3 640.3 307.7 686 308.8C731.7 310 777.3 339 823 338.2C868.7 337.3 914.3 306.7 937.2 291.3L960 276L960 541L937.2 541C914.3 541 868.7 541 823 541C777.3 541 731.7 541 686 541C640.3 541 594.7 541 548.8 541C503 541 457 541 411.2 541C365.3 541 319.7 541 274 541C228.3 541 182.7 541 137 541C91.3 541 45.7 541 22.8 541L0 541Z" fill="#1d1929"></path><path d="M0 346L22.8 350C45.7 354 91.3 362 137 361.3C182.7 360.7 228.3 351.3 274 353.7C319.7 356 365.3 370 411.2 367.5C457 365 503 346 548.8 345.5C594.7 345 640.3 363 686 370.5C731.7 378 777.3 375 823 365C868.7 355 914.3 338 937.2 329.5L960 321L960 541L937.2 541C914.3 541 868.7 541 823 541C777.3 541 731.7 541 686 541C640.3 541 594.7 541 548.8 541C503 541 457 541 411.2 541C365.3 541 319.7 541 274 541C228.3 541 182.7 541 137 541C91.3 541 45.7 541 22.8 541L0 541Z" fill="#191622"></path><path d="M0 437L22.8 433.2C45.7 429.3 91.3 421.7 137 412.2C182.7 402.7 228.3 391.3 274 394.3C319.7 397.3 365.3 414.7 411.2 424C457 433.3 503 434.7 548.8 427.2C594.7 419.7 640.3 403.3 686 395.2C731.7 387 777.3 387 823 383.7C868.7 380.3 914.3 373.7 937.2 370.3L960 367L960 541L937.2 541C914.3 541 868.7 541 823 541C777.3 541 731.7 541 686 541C640.3 541 594.7 541 548.8 541C503 541 457 541 411.2 541C365.3 541 319.7 541 274 541C228.3 541 182.7 541 137 541C91.3 541 45.7 541 22.8 541L0 541Z" fill="#15131c"></path><path d="M0 457L22.8 458C45.7 459 91.3 461 137 455.8C182.7 450.7 228.3 438.3 274 430C319.7 421.7 365.3 417.3 411.2 418.3C457 419.3 503 425.7 548.8 434.5C594.7 443.3 640.3 454.7 686 462.2C731.7 469.7 777.3 473.3 823 467C868.7 460.7 914.3 444.3 937.2 436.2L960 428L960 541L937.2 541C914.3 541 868.7 541 823 541C777.3 541 731.7 541 686 541C640.3 541 594.7 541 548.8 541C503 541 457 541 411.2 541C365.3 541 319.7 541 274 541C228.3 541 182.7 541 137 541C91.3 541 45.7 541 22.8 541L0 541Z" fill="#110f16"></path><path d="M0 469L22.8 472.5C45.7 476 91.3 483 137 486.5C182.7 490 228.3 490 274 487C319.7 484 365.3 478 411.2 480.7C457 483.3 503 494.7 548.8 500.5C594.7 506.3 640.3 506.7 686 500.2C731.7 493.7 777.3 480.3 823 474.5C868.7 468.7 914.3 470.3 937.2 471.2L960 472L960 541L937.2 541C914.3 541 868.7 541 823 541C777.3 541 731.7 541 686 541C640.3 541 594.7 541 548.8 541C503 541 457 541 411.2 541C365.3 541 319.7 541 274 541C228.3 541 182.7 541 137 541C91.3 541 45.7 541 22.8 541L0 541Z" fill="#0b0a0e"></path></svg>