<svg id="visual" viewBox="0 0 960 540" width="960" height="540" xmlns="http://www.w3.org/2000/svg" xmlns:xlink="http://www.w3.org/1999/xlink" version="1.1"><rect x="0" y="0" width="960" height="540" fill="#0b0a0e"></rect><path d="M0 320L11.5 330.5C23 341 46 362 68.8 364.3C91.7 366.7 114.3 350.3 137.2 348.3C160 346.3 183 358.7 205.8 356.7C228.7 354.7 251.3 338.3 274.2 339C297 339.7 320 357.3 342.8 364.2C365.7 371 388.3 367 411.2 362.8C434 358.7 457 354.3 480 354.8C503 355.3 526 360.7 548.8 361.5C571.7 362.3 594.3 358.7 617.2 356.7C640 354.7 663 354.3 685.8 352C708.7 349.7 731.3 345.3 754.2 350.2C777 355 800 369 822.8 369.2C845.7 369.3 868.3 355.7 891.2 350.2C914 344.7 937 347.3 948.5 348.7L960 350L960 541L948.5 541C937 541 914 541 891.2 541C868.3 541 845.7 541 822.8 541C800 541 777 541 754.2 541C731.3 541 708.7 541 685.8 541C663 541 640 541 617.2 541C594.3 541 571.7 541 548.8 541C526 541 503 541 480 541C457 541 434 541 411.2 541C388.3 541 365.7 541 342.8 541C320 541 297 541 274.2 541C251.3 541 228.7 541 205.8 541C183 541 160 541 137.2 541C114.3 541 91.7 541 68.8 541C46 541 23 541 11.5 541L0 541Z" fill="#0b0a0e"></path><path d="M0 352L11.5 358.8C23 365.7 46 379.3 68.8 380.2C91.7 381 114.3 369 137.2 363.8C160 358.7 183 360.3 205.8 359.7C228.7 359 251.3 356 274.2 358C297 360 320 367 342.8 367.7C365.7 368.3 388.3 362.7 411.2 359.2C434 355.7 457 354.3 480 362C503 369.7 526 386.3 548.8 388C571.7 389.7 594.3 376.3 617.2 368.2C640 360 663 357 685.8 356.7C708.7 356.3 731.3 358.7 754.2 362.5C777 366.3 800 371.7 822.8 373.3C845.7 375 868.3 373 891.2 373.2C914 373.3 937 375.7 948.5 376.8L960 378L960 541L948.5 541C937 541 914 541 891.2 541C868.3 541 845.7 541 822.8 541C800 541 777 541 754.2 541C731.3 541 708.7 541 685.8 541C663 541 640 541 617.2 541C594.3 541 571.7 541 548.8 541C526 541 503 541 480 541C457 541 434 541 411.2 541C388.3 541 365.7 541 342.8 541C320 541 297 541 274.2 541C251.3 541 228.7 541 205.8 541C183 541 160 541 137.2 541C114.3 541 91.7 541 68.8 541C46 541 23 541 11.5 541L0 541Z" fill="#28202e"></path><path d="M0 416L11.5 417C23 418 46 420 68.8 420.7C91.7 421.3 114.3 420.7 137.2 414.8C160 409 183 398 205.8 393C228.7 388 251.3 389 274.2 386.2C297 383.3 320 376.7 342.8 379C365.7 381.3 388.3 392.7 411.2 393.8C434 395 457 386 480 387C503 388 526 399 548.8 402.3C571.7 405.7 594.3 401.3 617.2 397.2C640 393 663 389 685.8 391.3C708.7 393.7 731.3 402.3 754.2 404.2C777 406 800 401 822.8 396.5C845.7 392 868.3 388 891.2 384.2C914 380.3 937 376.7 948.5 374.8L960 373L960 541L948.5 541C937 541 914 541 891.2 541C868.3 541 845.7 541 822.8 541C800 541 777 541 754.2 541C731.3 541 708.7 541 685.8 541C663 541 640 541 617.2 541C594.3 541 571.7 541 548.8 541C526 541 503 541 480 541C457 541 434 541 411.2 541C388.3 541 365.7 541 342.8 541C320 541 297 541 274.2 541C251.3 541 228.7 541 205.8 541C183 541 160 541 137.2 541C114.3 541 91.7 541 68.8 541C46 541 23 541 11.5 541L0 541Z" fill="#4c324a"></path><path d="M0 429L11.5 423.8C23 418.7 46 408.3 68.8 409.8C91.7 411.3 114.3 424.7 137.2 428.8C160 433 183 428 205.8 427.2C228.7 426.3 251.3 429.7 274.2 427.8C297 426 320 419 342.8 418.7C365.7 418.3 388.3 424.7 411.2 424.8C434 425 457 419 480 415.5C503 412 526 411 548.8 411C571.7 411 594.3 412 617.2 416C640 420 663 427 685.8 429.7C708.7 432.3 731.3 430.7 754.2 429.3C777 428 800 427 822.8 427.2C845.7 427.3 868.3 428.7 891.2 424.2C914 419.7 937 409.3 948.5 404.2L960 399L960 541L948.5 541C937 541 914 541 891.2 541C868.3 541 845.7 541 822.8 541C800 541 777 541 754.2 541C731.3 541 708.7 541 685.8 541C663 541 640 541 617.2 541C594.3 541 571.7 541 548.8 541C526 541 503 541 480 541C457 541 434 541 411.2 541C388.3 541 365.7 541 342.8 541C320 541 297 541 274.2 541C251.3 541 228.7 541 205.8 541C183 541 160 541 137.2 541C114.3 541 91.7 541 68.8 541C46 541 23 541 11.5 541L0 541Z" fill="#764362"></path><path d="M0 459L11.5 458.2C23 457.3 46 455.7 68.8 451.2C91.7 446.7 114.3 439.3 137.2 435.8C160 432.3 183 432.7 205.8 432.8C228.7 433 251.3 433 274.2 437C297 441 320 449 342.8 452.8C365.7 456.7 388.3 456.3 411.2 453C434 449.7 457 443.3 480 440.2C503 437 526 437 548.8 440.7C571.7 444.3 594.3 451.7 617.2 453.3C640 455 663 451 685.8 448.3C708.7 445.7 731.3 444.3 754.2 443.5C777 442.7 800 442.3 822.8 443.3C845.7 444.3 868.3 446.7 891.2 450.2C914 453.7 937 458.3 948.5 460.7L960 463L960 541L948.5 541C937 541 914 541 891.2 541C868.3 541 845.7 541 822.8 541C800 541 777 541 754.2 541C731.3 541 708.7 541 685.8 541C663 541 640 541 617.2 541C594.3 541 571.7 541 548.8 541C526 541 503 541 480 541C457 541 434 541 411.2 541C388.3 541 365.7 541 342.8 541C320 541 297 541 274.2 541C251.3 541 228.7 541 205.8 541C183 541 160 541 137.2 541C114.3 541 91.7 541 68.8 541C46 541 23 541 11.5 541L0 541Z" fill="#a45473"></path><path d="M0 476L11.5 474.8C23 473.7 46 471.3 68.8 469.7C91.7 468 114.3 467 137.2 468C160 469 183 472 205.8 470.5C228.7 469 251.3 463 274.2 459.8C297 456.7 320 456.3 342.8 458C365.7 459.7 388.3 463.3 411.2 463.8C434 464.3 457 461.7 480 462.3C503 463 526 467 548.8 469.8C571.7 472.7 594.3 474.3 617.2 471.8C640 469.3 663 462.7 685.8 462.7C708.7 462.7 731.3 469.3 754.2 470.2C777 471 800 466 822.8 463.8C845.7 461.7 868.3 462.3 891.2 464.7C914 467 937 471 948.5 473L960 475L960 541L948.5 541C937 541 914 541 891.2 541C868.3 541 845.7 541 822.8 541C800 541 777 541 754.2 541C731.3 541 708.7 541 685.8 541C663 541 640 541 617.2 541C594.3 541 571.7 541 548.8 541C526 541 503 541 480 541C457 541 434 541 411.2 541C388.3 541 365.7 541 342.8 541C320 541 297 541 274.2 541C251.3 541 228.7 541 205.8 541C183 541 160 541 137.2 541C114.3 541 91.7 541 68.8 541C46 541 23 541 11.5 541L0 541Z" fill="#d3687d"></path><path d="M0 488L11.5 488.3C23 488.7 46 489.3 68.8 489.5C91.7 489.7 114.3 489.3 137.2 489.5C160 489.7 183 490.3 205.8 491.8C228.7 493.3 251.3 495.7 274.2 496.8C297 498 320 498 342.8 496C365.7 494 388.3 490 411.2 487.5C434 485 457 484 480 486.2C503 488.3 526 493.7 548.8 496.2C571.7 498.7 594.3 498.3 617.2 497.7C640 497 663 496 685.8 494C708.7 492 731.3 489 754.2 488.7C777 488.3 800 490.7 822.8 493C845.7 495.3 868.3 497.7 891.2 498.3C914 499 937 498 948.5 497.5L960 497L960 541L948.5 541C937 541 914 541 891.2 541C868.3 541 845.7 541 822.8 541C800 541 777 541 754.2 541C731.3 541 708.7 541 685.8 541C663 541 640 541 617.2 541C594.3 541 571.7 541 548.8 541C526 541 503 541 480 541C457 541 434 541 411.2 541C388.3 541 365.7 541 342.8 541C320 541 297 541 274.2 541C251.3 541 228.7 541 205.8 541C183 541 160 541 137.2 541C114.3 541 91.7 541 68.8 541C46 541 23 541 11.5 541L0 541Z" fill="#ff8080"></path></svg>