<svg id="visual" viewBox="0 0 960 540" width="960" height="540" xmlns="http://www.w3.org/2000/svg" xmlns:xlink="http://www.w3.org/1999/xlink" version="1.1"><rect x="0" y="0" width="960" height="540" fill="#1d1929"></rect><path d="M0 397L22.8 391C45.7 385 91.3 373 137 366.7C182.7 360.3 228.3 359.7 274 366.7C319.7 373.7 365.3 388.3 411.2 381.2C457 374 503 345 548.8 343.3C594.7 341.7 640.3 367.3 686 371.2C731.7 375 777.3 357 823 346.2C868.7 335.3 914.3 331.7 937.2 329.8L960 328L960 541L937.2 541C914.3 541 868.7 541 823 541C777.3 541 731.7 541 686 541C640.3 541 594.7 541 548.8 541C503 541 457 541 411.2 541C365.3 541 319.7 541 274 541C228.3 541 182.7 541 137 541C91.3 541 45.7 541 22.8 541L0 541Z" fill="#1d1929"></path><path d="M0 369L22.8 374.5C45.7 380 91.3 391 137 396.3C182.7 401.7 228.3 401.3 274 395.8C319.7 390.3 365.3 379.7 411.2 377.8C457 376 503 383 548.8 388.3C594.7 393.7 640.3 397.3 686 392.5C731.7 387.7 777.3 374.3 823 369.2C868.7 364 914.3 367 937.2 368.5L960 370L960 541L937.2 541C914.3 541 868.7 541 823 541C777.3 541 731.7 541 686 541C640.3 541 594.7 541 548.8 541C503 541 457 541 411.2 541C365.3 541 319.7 541 274 541C228.3 541 182.7 541 137 541C91.3 541 45.7 541 22.8 541L0 541Z" fill="#191622"></path><path d="M0 424L22.8 421.7C45.7 419.3 91.3 414.7 137 413C182.7 411.3 228.3 412.7 274 416C319.7 419.3 365.3 424.7 411.2 423.3C457 422 503 414 548.8 411.8C594.7 409.7 640.3 413.3 686 420.2C731.7 427 777.3 437 823 441.5C868.7 446 914.3 445 937.2 444.5L960 444L960 541L937.2 541C914.3 541 868.7 541 823 541C777.3 541 731.7 541 686 541C640.3 541 594.7 541 548.8 541C503 541 457 541 411.2 541C365.3 541 319.7 541 274 541C228.3 541 182.7 541 137 541C91.3 541 45.7 541 22.8 541L0 541Z" fill="#15131c"></path><path d="M0 436L22.8 443C45.7 450 91.3 464 137 467.3C182.7 470.7 228.3 463.3 274 465C319.7 466.7 365.3 477.3 411.2 474.7C457 472 503 456 548.8 447.3C594.7 438.7 640.3 437.3 686 438.3C731.7 439.3 777.3 442.7 823 442C868.7 441.3 914.3 436.7 937.2 434.3L960 432L960 541L937.2 541C914.3 541 868.7 541 823 541C777.3 541 731.7 541 686 541C640.3 541 594.7 541 548.8 541C503 541 457 541 411.2 541C365.3 541 319.7 541 274 541C228.3 541 182.7 541 137 541C91.3 541 45.7 541 22.8 541L0 541Z" fill="#110f16"></path><path d="M0 486L22.8 485.5C45.7 485 91.3 484 137 484.5C182.7 485 228.3 487 274 488.7C319.7 490.3 365.3 491.7 411.2 495C457 498.3 503 503.7 548.8 503.8C594.7 504 640.3 499 686 498.2C731.7 497.3 777.3 500.7 823 498C868.7 495.3 914.3 486.7 937.2 482.3L960 478L960 541L937.2 541C914.3 541 868.7 541 823 541C777.3 541 731.7 541 686 541C640.3 541 594.7 541 548.8 541C503 541 457 541 411.2 541C365.3 541 319.7 541 274 541C228.3 541 182.7 541 137 541C91.3 541 45.7 541 22.8 541L0 541Z" fill="#0b0a0e"></path></svg>