<svg id="visual" viewBox="0 0 960 540" width="960" height="540" xmlns="http://www.w3.org/2000/svg" xmlns:xlink="http://www.w3.org/1999/xlink" version="1.1"><rect x="0" y="0" width="960" height="540" fill="#1d1929"></rect><path d="M0 358L22.8 359.2C45.7 360.3 91.3 362.7 137 360C182.7 357.3 228.3 349.7 274 345.3C319.7 341 365.3 340 411.2 342C457 344 503 349 548.8 348.8C594.7 348.7 640.3 343.3 686 341.8C731.7 340.3 777.3 342.7 823 349.3C868.7 356 914.3 367 937.2 372.5L960 378L960 541L937.2 541C914.3 541 868.7 541 823 541C777.3 541 731.7 541 686 541C640.3 541 594.7 541 548.8 541C503 541 457 541 411.2 541C365.3 541 319.7 541 274 541C228.3 541 182.7 541 137 541C91.3 541 45.7 541 22.8 541L0 541Z" fill="#1d1929"></path><path d="M0 389L22.8 388.2C45.7 387.3 91.3 385.7 137 384C182.7 382.3 228.3 380.7 274 379.5C319.7 378.3 365.3 377.7 411.2 373.5C457 369.3 503 361.7 548.8 366.8C594.7 372 640.3 390 686 390.7C731.7 391.3 777.3 374.7 823 367.2C868.7 359.7 914.3 361.3 937.2 362.2L960 363L960 541L937.2 541C914.3 541 868.7 541 823 541C777.3 541 731.7 541 686 541C640.3 541 594.7 541 548.8 541C503 541 457 541 411.2 541C365.3 541 319.7 541 274 541C228.3 541 182.7 541 137 541C91.3 541 45.7 541 22.8 541L0 541Z" fill="#191622"></path><path d="M0 440L22.8 440.2C45.7 440.3 91.3 440.7 137 440C182.7 439.3 228.3 437.7 274 434.7C319.7 431.7 365.3 427.3 411.2 428.3C457 429.3 503 435.7 548.8 434.3C594.7 433 640.3 424 686 424.5C731.7 425 777.3 435 823 437.5C868.7 440 914.3 435 937.2 432.5L960 430L960 541L937.2 541C914.3 541 868.7 541 823 541C777.3 541 731.7 541 686 541C640.3 541 594.7 541 548.8 541C503 541 457 541 411.2 541C365.3 541 319.7 541 274 541C228.3 541 182.7 541 137 541C91.3 541 45.7 541 22.8 541L0 541Z" fill="#15131c"></path><path d="M0 465L22.8 461.3C45.7 457.7 91.3 450.3 137 448.3C182.7 446.3 228.3 449.7 274 449.8C319.7 450 365.3 447 411.2 450.8C457 454.7 503 465.3 548.8 470.2C594.7 475 640.3 474 686 473C731.7 472 777.3 471 823 465.3C868.7 459.7 914.3 449.3 937.2 444.2L960 439L960 541L937.2 541C914.3 541 868.7 541 823 541C777.3 541 731.7 541 686 541C640.3 541 594.7 541 548.8 541C503 541 457 541 411.2 541C365.3 541 319.7 541 274 541C228.3 541 182.7 541 137 541C91.3 541 45.7 541 22.8 541L0 541Z" fill="#110f16"></path><path d="M0 480L22.8 482.2C45.7 484.3 91.3 488.7 137 487.8C182.7 487 228.3 481 274 478.2C319.7 475.3 365.3 475.7 411.2 482.3C457 489 503 502 548.8 502.2C594.7 502.3 640.3 489.7 686 484.2C731.7 478.7 777.3 480.3 823 483.3C868.7 486.3 914.3 490.7 937.2 492.8L960 495L960 541L937.2 541C914.3 541 868.7 541 823 541C777.3 541 731.7 541 686 541C640.3 541 594.7 541 548.8 541C503 541 457 541 411.2 541C365.3 541 319.7 541 274 541C228.3 541 182.7 541 137 541C91.3 541 45.7 541 22.8 541L0 541Z" fill="#0b0a0e"></path></svg>