<svg id="visual" viewBox="0 0 960 540" width="960" height="540" xmlns="http://www.w3.org/2000/svg" xmlns:xlink="http://www.w3.org/1999/xlink" version="1.1"><rect x="0" y="0" width="960" height="540" fill="#1d1929"></rect><path d="M0 399L22.8 392C45.7 385 91.3 371 137 363.2C182.7 355.3 228.3 353.7 274 354.8C319.7 356 365.3 360 411.2 354.3C457 348.7 503 333.3 548.8 332.7C594.7 332 640.3 346 686 347.3C731.7 348.7 777.3 337.3 823 344.2C868.7 351 914.3 376 937.2 388.5L960 401L960 541L937.2 541C914.3 541 868.7 541 823 541C777.3 541 731.7 541 686 541C640.3 541 594.7 541 548.8 541C503 541 457 541 411.2 541C365.3 541 319.7 541 274 541C228.3 541 182.7 541 137 541C91.3 541 45.7 541 22.8 541L0 541Z" fill="#1d1929"></path><path d="M0 415L22.8 414.3C45.7 413.7 91.3 412.3 137 409.7C182.7 407 228.3 403 274 397.8C319.7 392.7 365.3 386.3 411.2 386.7C457 387 503 394 548.8 393C594.7 392 640.3 383 686 381.2C731.7 379.3 777.3 384.7 823 390.3C868.7 396 914.3 402 937.2 405L960 408L960 541L937.2 541C914.3 541 868.7 541 823 541C777.3 541 731.7 541 686 541C640.3 541 594.7 541 548.8 541C503 541 457 541 411.2 541C365.3 541 319.7 541 274 541C228.3 541 182.7 541 137 541C91.3 541 45.7 541 22.8 541L0 541Z" fill="#171520"></path><path d="M0 423L22.8 423C45.7 423 91.3 423 137 429.5C182.7 436 228.3 449 274 455.5C319.7 462 365.3 462 411.2 455.7C457 449.3 503 436.7 548.8 430.2C594.7 423.7 640.3 423.3 686 431.5C731.7 439.7 777.3 456.3 823 461.2C868.7 466 914.3 459 937.2 455.5L960 452L960 541L937.2 541C914.3 541 868.7 541 823 541C777.3 541 731.7 541 686 541C640.3 541 594.7 541 548.8 541C503 541 457 541 411.2 541C365.3 541 319.7 541 274 541C228.3 541 182.7 541 137 541C91.3 541 45.7 541 22.8 541L0 541Z" fill="#121018"></path><path d="M0 498L22.8 499.7C45.7 501.3 91.3 504.7 137 501.2C182.7 497.7 228.3 487.3 274 483.8C319.7 480.3 365.3 483.7 411.2 482.2C457 480.7 503 474.3 548.8 470.5C594.7 466.7 640.3 465.3 686 465.8C731.7 466.3 777.3 468.7 823 471C868.7 473.3 914.3 475.7 937.2 476.8L960 478L960 541L937.2 541C914.3 541 868.7 541 823 541C777.3 541 731.7 541 686 541C640.3 541 594.7 541 548.8 541C503 541 457 541 411.2 541C365.3 541 319.7 541 274 541C228.3 541 182.7 541 137 541C91.3 541 45.7 541 22.8 541L0 541Z" fill="#0b0a0e"></path></svg>